<svg id="Group_8810" data-name="Group 8810" xmlns="http://www.w3.org/2000/svg" xmlns:xlink="http://www.w3.org/1999/xlink" width="180.899" height="252.001" viewBox="0 0 180.899 252.001">
  <defs>
    <clipPath id="clip-path">
      <rect id="Rectangle_3304" data-name="Rectangle 3304" width="180.899" height="252.001" fill="none"/>
    </clipPath>
  </defs>
  <g id="Group_8809" data-name="Group 8809" clip-path="url(#clip-path)">
    <path id="Path_13466" data-name="Path 13466" d="M125.33,383.324l-3.391,6.383a7.091,7.091,0,0,1-4.76,2.818l-44.492,7.863c-5.313.939-11.87-2.344-14.643-7.333l-55-99.045a7.794,7.794,0,0,1-.732-6.892l0-.008,3.454-6.5a7.084,7.084,0,0,1,4.746-2.8l44.492-7.863c5.313-.939,11.87,2.344,14.644,7.333l55,99.045a7.73,7.73,0,0,1,.679,7" transform="translate(-1 -149.345)" fill="#5b5b99"/>
    <path id="Path_13467" data-name="Path 13467" d="M123.62,387.057,79.128,394.92c-5.313.939-11.869-2.344-14.642-7.333l-55-99.045c-2.774-4.989-.716-9.794,4.6-10.733l44.492-7.863c5.313-.939,11.868,2.344,14.642,7.333l55,99.045c2.774,4.988.716,9.794-4.6,10.733" transform="translate(-4.565 -149.346)" fill="#5b5b99"/>
    <path id="Path_13468" data-name="Path 13468" d="M74.3,281.046l55.03,99.092c1.965,3.534.507,6.937-3.256,7.6L81.2,395.67c-3.763.664-8.406-1.661-10.371-5.194L15.8,291.384c-1.965-3.533-.507-6.936,3.256-7.6l5.748-1.016a1.7,1.7,0,0,1,1.654.829l.215.386A4.974,4.974,0,0,0,31.5,286.4l25.044-4.426c1.751-.309,2.429-1.893,1.515-3.537l-.215-.387a.759.759,0,0,1,.519-1.212l5.566-.984c3.763-.664,8.406,1.661,10.371,5.193" transform="translate(-8.263 -152.641)" fill="#adadfb"/>
    <path id="Path_13469" data-name="Path 13469" d="M91.973,226.977s6.422-32.04,33.445-23.945S207.82,195.606,194,128.9,100.852,70.448,78.8,82.751c-27.078,15.109-24.625,61.041,20.16,61.458s59.33-.118,58.056,23.988-24.422,15.851-41.169,19.115c-26.286,5.124-28.288,28.445-23.876,39.665" transform="translate(-33.911 -41.155)" fill="#3b3b56"/>
    <path id="Path_13470" data-name="Path 13470" d="M91.973,226.977s6.422-32.04,33.445-23.945S207.82,195.606,194,128.9,100.852,70.448,78.8,82.751c-27.078,15.109-24.625,61.041,20.16,61.458s59.33-.118,58.056,23.988-24.422,15.851-41.169,19.115C89.563,192.437,87.561,215.758,91.973,226.977Z" transform="translate(-33.911 -41.155)" fill="none" stroke="#3b3b56" stroke-linecap="round" stroke-linejoin="round" stroke-width="3.204"/>
    <path id="Path_13471" data-name="Path 13471" d="M144.895,41.763a18.205,18.205,0,1,0,17-19.334,18.2,18.2,0,0,0-17,19.334" transform="translate(-80.188 -12.395)" fill="#fb9387"/>
    <path id="Path_13472" data-name="Path 13472" d="M195.1,65.967c.2-.591-3.593-5.772-7.063-5.146-4.356.786-7.357,8.67-6.6,9.175.66.443,7.223-3.028,8.241-3.191.5-.08,5.225-.233,5.426-.838" transform="translate(-100.373 -33.64)" fill="#3b3b56"/>
    <path id="Path_13473" data-name="Path 13473" d="M355.176,245.355a19.469,19.469,0,1,1-19.469-19.469,19.469,19.469,0,0,1,19.469,19.469" transform="translate(-175.059 -125.043)" fill="#fdc54f"/>
    <path id="Path_13474" data-name="Path 13474" d="M114.59,67.838A23.272,23.272,0,1,1,91.318,44.566,23.272,23.272,0,0,1,114.59,67.838" transform="translate(-37.668 -24.67)" fill="#fff"/>
    <path id="Path_13475" data-name="Path 13475" d="M201.352,183.37a20.5,20.5,0,1,1-20.5-20.5,20.5,20.5,0,0,1,20.5,20.5" transform="translate(-88.766 -90.16)" fill="#adadfb"/>
    <path id="Path_13476" data-name="Path 13476" d="M332.8,272.314c.728,1.017,5.4-1.447,9.152-1.113,4.715.418,9.345,2.278,10.14,1.111s-6.437-8.834-10.475-8.835-9.546,7.82-8.817,8.838" transform="translate(-184.193 -145.852)" fill="#3b3b56"/>
    <path id="Path_13477" data-name="Path 13477" d="M168.059,356.2a17.168,17.168,0,1,0,8.5-22.741,17.168,17.168,0,0,0-8.5,22.741" transform="translate(-92.174 -183.733)" fill="#fb9387"/>
    <path id="Path_13478" data-name="Path 13478" d="M128.163,85.284s-2.229-2.886-2.35-3.885c-.077-.662,2.1-2.9,2.115-3.4.023-.761-4.046-1.848-4.191-2.346-.209-.717,2.013-2.9,2.077-3.135a30.42,30.42,0,0,0-3-3.165c-.019-.473,2.256-10.637,10.448-4.143,9.636,7.631-5.1,20.071-5.1,20.071" transform="translate(-67.986 -34.903)" fill="#fb9387"/>
    <path id="Path_13479" data-name="Path 13479" d="M105.6,82.978c-.016.494-2.012,2.146-1.935,2.809.121,1,2.911,5.03,2.911,5.03-5.322.09-25.493-6.758-18.622-16.528,4.736-6.734,12.537-.92,13.615.222a10.785,10.785,0,0,1,2.121,2.639c-.064.236-2.365,2.58-2.157,3.3.145.5,4.088,1.77,4.066,2.531" transform="translate(-47.906 -39.353)" fill="#fb9387"/>
    <path id="Path_13480" data-name="Path 13480" d="M197.191,190.5s-12.6-2.055-13.836-.822c-1.083,1.083-1.438,11.85-.069,13.63s7.4,1.027,7.4,1.027-.822,7.333,2.74,7.333c1.13,0,.617-7.264,2.946-8.5Z" transform="translate(-100.968 -104.784)" fill="#fff"/>
    <path id="Path_13481" data-name="Path 13481" d="M214.58,189.858l5.685.685-.677,13.222-5.891-.274Z" transform="translate(-118.296 -105.1)" fill="#7f7ff8"/>
    <path id="Path_13482" data-name="Path 13482" d="M330.925,310.553A14.956,14.956,0,1,1,315.968,295.6a14.956,14.956,0,0,1,14.956,14.956" transform="translate(-166.631 -163.633)" fill="#adadfb"/>
    <path id="Path_13483" data-name="Path 13483" d="M327.889,315.759s-9.195-1.5-10.094-.6c-.79.79-1.05,8.645-.05,9.944s5.4.75,5.4.75-.6,5.35,2,5.35c.824,0,.45-5.3,2.149-6.2Z" transform="translate(-175.533 -174.303)" fill="#fff"/>
    <path id="Path_13484" data-name="Path 13484" d="M340.576,315.287l4.148.5-.494,9.646-4.3-.2Z" transform="translate(-188.176 -174.533)" fill="#7f7ff8"/>
    <path id="Path_13485" data-name="Path 13485" d="M274.135,207.318a6.759,6.759,0,1,1-6.759-6.759,6.759,6.759,0,0,1,6.759,6.759" transform="translate(-144.27 -111.023)" fill="#fb9387"/>
    <path id="Path_13486" data-name="Path 13486" d="M130.384,7.817a6.054,6.054,0,1,1-6.054-6.054,6.054,6.054,0,0,1,6.054,6.054" transform="translate(-65.474 -0.976)" fill="#fdc54f"/>
    <path id="Path_13487" data-name="Path 13487" d="M257.281,392.4a5.5,5.5,0,1,1-5.5-5.5,5.5,5.5,0,0,1,5.5,5.5" transform="translate(-136.329 -214.174)" fill="#fdc54f"/>
    <path id="Path_13488" data-name="Path 13488" d="M124.086,375.434a10.215,10.215,0,0,1,1.249,3.591,7.128,7.128,0,0,1-.505,3.854l-3.377,6.453a.557.557,0,0,1-.03.05l0,.008a6.959,6.959,0,0,1-2.377,2.132,9.251,9.251,0,0,1-2.967,1l-5.8,1.059-11.6,2.112-23.212,4.177-2.9.522-.725.131-.786.1a6.069,6.069,0,0,1-.788.056c-.263,0-.527.031-.788.012a14.953,14.953,0,0,1-3.091-.427,16.584,16.584,0,0,1-2.917-1.043,16.852,16.852,0,0,1-5.035-3.563,14.171,14.171,0,0,1-1.9-2.485c-.293-.457-.5-.868-.746-1.3l-.717-1.288L43.6,369.974l-22.9-41.235L9.268,308.1,3.556,297.788l-1.428-2.579-.714-1.29a12.515,12.515,0,0,1-.688-1.41,9.348,9.348,0,0,1-.72-3.128,7.344,7.344,0,0,1,.573-3.24c.008-.018.017-.037.026-.054L4.084,279.6l0,0a.823.823,0,0,1,.046-.074,7.45,7.45,0,0,1,3.786-2.732,13.312,13.312,0,0,1,2.188-.5l2.1-.363,8.4-1.453,16.8-2.9,16.819-2.851a14.37,14.37,0,0,1,8.535,1.716,15.321,15.321,0,0,1,6.282,5.979.441.441,0,0,1-.769.432v0a14.4,14.4,0,0,0-5.968-5.533,13.347,13.347,0,0,0-7.919-1.511l-16.753,3.052-16.773,3.03-8.387,1.513-2.1.378a11.916,11.916,0,0,0-1.961.452,5.918,5.918,0,0,0-3,2.177l.047-.078L2.02,286.837l.026-.054a5.733,5.733,0,0,0-.42,2.52,7.872,7.872,0,0,0,.612,2.585,10.749,10.749,0,0,0,.608,1.236l.717,1.288L5,296.987l5.738,10.3,11.477,20.6,22.9,41.24,11.432,20.629.714,1.289c.239.418.475.888.717,1.257a12.511,12.511,0,0,0,1.669,2.191,15.219,15.219,0,0,0,4.517,3.234,14.922,14.922,0,0,0,2.62.957,13.342,13.342,0,0,0,2.735.4c.229.02.457-.007.685-.007a4.811,4.811,0,0,0,.681-.044l.676-.082.726-.126,2.9-.5,23.238-4.032,11.623-1.992,5.812-.993a8.041,8.041,0,0,0,2.606-.837,5.773,5.773,0,0,0,2-1.743l-.035.058,3.432-6.377a6.1,6.1,0,0,0,.448-3.252,9.194,9.194,0,0,0-1.09-3.239l0,0a.5.5,0,0,1,.873-.48" transform="translate(0 -148.697)" fill="#3b3b56"/>
    <path id="Path_13489" data-name="Path 13489" d="M8.33,287.725a10.989,10.989,0,0,1-1.21-3.115,7.481,7.481,0,0,1,.062-3.419,6.553,6.553,0,0,1,1.748-3.009,7.706,7.706,0,0,1,2.967-1.774,5.476,5.476,0,0,1,.824-.235c.278-.067.56-.136.814-.178l1.565-.291,3.13-.58,6.261-1.162c8.349-1.539,16.711-3.008,25.066-4.514l6.274-1.085,1.568-.271c.252-.05.542-.084.828-.119a7.19,7.19,0,0,1,.856-.077,13.142,13.142,0,0,1,3.378.277,16.865,16.865,0,0,1,6.109,2.652A17.371,17.371,0,0,1,71.108,273a14.849,14.849,0,0,1,1.994,2.714l6.083,11.2c2,3.746,4.02,7.478,6,11.237a.441.441,0,0,1-.771.428c-2.146-3.664-4.246-7.354-6.369-11.029l-6.293-11.061a14.811,14.811,0,0,0-9.624-6.659,11.4,11.4,0,0,0-2.95-.222,5.488,5.488,0,0,0-.728.071c-.241.031-.478.058-.747.112l-1.567.283-6.266,1.13c-8.365,1.449-16.724,2.935-25.095,4.35l-6.279,1.054-3.14.527-1.57.263c-.271.04-.5.1-.743.149a4.811,4.811,0,0,0-.708.186,6.36,6.36,0,0,0-2.5,1.388,5.292,5.292,0,0,0-1.483,2.393,6.336,6.336,0,0,0-.128,2.89,9.933,9.933,0,0,0,.979,2.834l.008.014a.5.5,0,0,1-.878.47" transform="translate(-3.848 -148.287)" fill="#3b3b56"/>
    <path id="Path_13490" data-name="Path 13490" d="M220.869,406.865q4.182,7.037,8.221,14.153,4.055,7.108,8.014,14.268t7.85,14.359l.97,1.8a13,13,0,0,1,.883,1.976,8.2,8.2,0,0,1,.347,4.388l-.129.549-.2.531a6.726,6.726,0,0,1-.5,1.013,6.627,6.627,0,0,1-1.479,1.67,8.053,8.053,0,0,1-3.971,1.666.441.441,0,0,1-.154-.868,7.423,7.423,0,0,0,3.4-1.645,5.057,5.057,0,0,0,1.513-2.273l.139-.435.082-.452a6.87,6.87,0,0,0-.433-3.653,12.529,12.529,0,0,0-.838-1.729l-1.016-1.775q-4.067-7.1-8.04-14.254t-7.876-14.345q-3.906-7.19-7.669-14.46a.5.5,0,0,1,.871-.483" transform="translate(-121.753 -225.093)" fill="#3b3b56"/>
    <path id="Path_13491" data-name="Path 13491" d="M104.091,334.705l20.374,36.277L127,375.521l1.268,2.27.634,1.135a9.44,9.44,0,0,1,.592,1.284,6.372,6.372,0,0,1,.384,2.886,4.89,4.89,0,0,1-1.206,2.744,5.648,5.648,0,0,1-2.487,1.6,5.069,5.069,0,0,1-.7.191c-.244.06-.457.1-.667.134l-1.28.229-20.476,3.674-20.479,3.657-1.28.227-.64.113-.32.057-.358.047a9.4,9.4,0,0,1-2.849-.073,12.152,12.152,0,0,1-5.077-2.239,11.7,11.7,0,0,1-2.031-1.933,10.745,10.745,0,0,1-.811-1.167c-.132-.208-.235-.4-.339-.585l-.316-.568-2.529-4.545L45.812,348.3l-20.16-36.4-10.08-18.2-1.26-2.275c-.2-.36-.43-.8-.629-1.233l-.256-.679-.189-.71a5.722,5.722,0,0,1,.137-2.992,5.082,5.082,0,0,1,1.784-2.469,6.381,6.381,0,0,1,2.723-1.133l2.565-.446,2.562-.445.64-.111a2.2,2.2,0,0,1,1,.065,2.512,2.512,0,0,1,1.47,1.132,5.264,5.264,0,0,0,.621.972,4.178,4.178,0,0,0,.811.736,4.407,4.407,0,0,0,2.038.772,3.639,3.639,0,0,0,.521.007l.252-.031.32-.056,1.281-.222,2.562-.445,10.248-1.78,10.248-1.779a3.126,3.126,0,0,0,1.033-.283,1.365,1.365,0,0,0,.594-.611,1.481,1.481,0,0,0,.106-.879,2.022,2.022,0,0,0-.132-.483,1.747,1.747,0,0,0-.107-.239c-.034-.074-.083-.166-.138-.264l-.079-.142c-.026-.047-.049-.087-.091-.172a1.657,1.657,0,0,1-.161-.5,1.379,1.379,0,0,1,.339-1.158,1.442,1.442,0,0,1,.5-.346,2.13,2.13,0,0,1,.458-.121l.641-.111,2.563-.442,1.282-.22.641-.11c.209-.038.428-.074.669-.1a9.09,9.09,0,0,1,2.783.083,11.894,11.894,0,0,1,4.967,2.215,11.35,11.35,0,0,1,1.976,1.9,10.275,10.275,0,0,1,.785,1.138c.248.4.428.765.646,1.15l2.5,4.56L86.8,303.68a.441.441,0,0,1-.771.428L75.833,285.973l-2.548-4.534c-.213-.368-.423-.778-.639-1.111a9.06,9.06,0,0,0-.7-.994,10.166,10.166,0,0,0-1.784-1.676,10.68,10.68,0,0,0-4.465-1.941,7.828,7.828,0,0,0-2.394-.049c-.19.021-.4.055-.616.1l-.64.117-1.279.233-2.559.462-.64.115a.853.853,0,0,0-.171.038.094.094,0,0,0-.033.022s-.006-.012,0,.049a.334.334,0,0,0,.04.112c0,.013.035.067.062.114l.079.142c.052.091.106.189.166.311a2.894,2.894,0,0,1,.16.352,3.354,3.354,0,0,1,.213.767,2.833,2.833,0,0,1-.209,1.661,2.738,2.738,0,0,1-1.17,1.237,4.449,4.449,0,0,1-1.45.438l-10.237,1.84-10.238,1.841-2.559.46-1.279.23-.32.058-.394.051a5.131,5.131,0,0,1-.777,0,5.926,5.926,0,0,1-2.783-1.025,5.734,5.734,0,0,1-1.115-1,6.806,6.806,0,0,1-.793-1.2.979.979,0,0,0-.554-.4.633.633,0,0,0-.287-.023l-.641.115-2.559.46-2.556.461a4.771,4.771,0,0,0-2.035.85,3.491,3.491,0,0,0-1.207,1.683,4.084,4.084,0,0,0-.084,2.142l.148.546.2.537c.163.35.333.688.557,1.08l1.265,2.272,10.12,18.176,20.239,36.351,20.173,36.389,2.521,4.549.315.568c.1.192.211.383.313.54a8.993,8.993,0,0,0,.669.967,9.977,9.977,0,0,0,1.725,1.644,10.457,10.457,0,0,0,4.35,1.931,7.7,7.7,0,0,0,2.329.066l.287-.035.32-.056.64-.112,1.28-.225,20.492-3.584,20.5-3.567a22.693,22.693,0,0,0,2.442-.49,4.158,4.158,0,0,0,1.844-1.158,4.022,4.022,0,0,0,.566-4.154,8.034,8.034,0,0,0-.49-1.076l-.629-1.138-1.256-2.276-2.511-4.554-20.025-36.471a.5.5,0,0,1,.871-.483" transform="translate(-7.253 -151.86)" fill="#3b3b56"/>
    <path id="Path_13492" data-name="Path 13492" d="M89.892,282.881a1.478,1.478,0,0,1,.271.6,1.314,1.314,0,0,1-.1.791,1.371,1.371,0,0,1-.576.61,1.835,1.835,0,0,1-.708.217,2.337,2.337,0,0,1-1.272-.255,2.273,2.273,0,0,1-.966-.91,1.957,1.957,0,0,1-.229-.766,1.564,1.564,0,0,1,.213-.926,1.54,1.54,0,0,1,.716-.608,1.653,1.653,0,0,1,.757-.125,2.105,2.105,0,0,1,1.172.444,1.913,1.913,0,0,1,.671.955Zm-.821.456a1.382,1.382,0,0,0-1.04-.26c-.055.019-.09.049-.086.058s.044,0,.078-.038a.173.173,0,0,0,.042-.087c0-.007.012.018.037.056a1.153,1.153,0,0,0,.26.3,1.171,1.171,0,0,0,.385.2c.129.032.163.037.2.073s.124-.077.077-.269Z" transform="translate(-47.778 -155.833)" fill="#3b3b56"/>
    <path id="Path_13493" data-name="Path 13493" d="M68.441,286.91a8.559,8.559,0,0,1,1.553-.6,14.256,14.256,0,0,1,1.595-.359,14.529,14.529,0,0,1,1.627-.18,8.751,8.751,0,0,1,1.669.057.464.464,0,0,1,.153.868,8.755,8.755,0,0,1-1.548.625,14.524,14.524,0,0,1-1.59.388,14.265,14.265,0,0,1-1.621.209,8.592,8.592,0,0,1-1.664-.029.522.522,0,0,1-.173-.981" transform="translate(-37.732 -158.187)" fill="#3b3b56"/>
    <path id="Path_13494" data-name="Path 13494" d="M211.94,544.957a8.553,8.553,0,0,1,1.553-.6,14.242,14.242,0,0,1,1.595-.359,14.522,14.522,0,0,1,1.627-.18,8.749,8.749,0,0,1,1.669.057.464.464,0,0,1,.153.868,8.759,8.759,0,0,1-1.548.625,14.539,14.539,0,0,1-1.59.388,14.279,14.279,0,0,1-1.621.209,8.592,8.592,0,0,1-1.664-.029.522.522,0,0,1-.173-.981" transform="translate(-117.168 -301.034)" fill="#3b3b56"/>
    <path id="Path_13495" data-name="Path 13495" d="M318.035,255.007a19.653,19.653,0,0,1-3.258-12.083c.013-.266.012-.533.042-.8l.113-.792a13.041,13.041,0,0,1,.274-1.576c.131-.518.251-1.039.393-1.554l.538-1.511a21.183,21.183,0,0,1,3.262-5.5,19.579,19.579,0,0,1,4.841-4.2,21.282,21.282,0,0,1,2.854-1.488l1.513-.558c.506-.18,1.036-.284,1.554-.429.262-.06.517-.15.784-.186l.8-.125a12.075,12.075,0,0,1,1.6-.192c.537-.026,1.074-.064,1.61-.077l1.611.077a19.6,19.6,0,0,1,11.678,4.953c.39.369.808.711,1.173,1.1l1.08,1.2a21.706,21.706,0,0,1,1.837,2.644l.414.691.348.727a13.424,13.424,0,0,1,.653,1.471c.18.506.373,1.007.54,1.517l.4,1.561a20.862,20.862,0,0,1,.342,6.392,19.959,19.959,0,0,1-16.133,17.51.441.441,0,0,1-.177-.863,19.209,19.209,0,0,0,10.131-6.06,18.4,18.4,0,0,0,4.636-13.7l-.042-.739c-.028-.245-.074-.488-.11-.731l-.114-.73a4.927,4.927,0,0,0-.143-.725l-.373-1.43c-.158-.467-.339-.925-.507-1.388a12.11,12.11,0,0,0-.609-1.344l-.322-.664-.386-.63a19.991,19.991,0,0,0-1.7-2.411l-1-1.088c-.336-.359-.724-.666-1.082-1a19.518,19.518,0,0,0-4.978-3.113,19.743,19.743,0,0,0-5.7-1.4l-1.474-.079c-.491.011-.983.045-1.474.065a10.7,10.7,0,0,0-1.464.169l-.73.109c-.244.03-.478.113-.717.167-.474.131-.96.221-1.424.384l-1.387.5a19.512,19.512,0,0,0-2.621,1.351l-.633.381c-.2.141-.4.293-.595.438l-.593.441-.3.221-.275.247c-.365.331-.741.651-1.1.99l-1.005,1.086a19.077,19.077,0,0,0-1.758,22.234.5.5,0,0,1-.835.543Z" transform="translate(-174.23 -123.965)" fill="#3b3b56"/>
    <path id="Path_13496" data-name="Path 13496" d="M113.981,66.871a23.881,23.881,0,0,1-23.77,24.035,24.193,24.193,0,0,1-9.218-1.783,23.9,23.9,0,0,1-7.838-5.2A24.068,24.068,0,0,1,80.99,44.61a23.809,23.809,0,0,1,9.221-1.791,23.788,23.788,0,0,1,22.013,14.933,23.551,23.551,0,0,1,1.7,9.118Zm-.939,0a23.232,23.232,0,0,0-1.846-8.692,22.668,22.668,0,0,0-20.985-13.8,22.98,22.98,0,0,0-8.59,1.754,22.49,22.49,0,0,0-7.266,36.593,22.637,22.637,0,0,0,38.63-15.855Z" transform="translate(-36.561 -23.703)" fill="#3b3b56"/>
    <path id="Path_13497" data-name="Path 13497" d="M200.743,182.4a21.108,21.108,0,0,1-21,21.264,21.4,21.4,0,0,1-8.157-1.571,21.134,21.134,0,0,1-6.939-4.6,21.3,21.3,0,0,1,6.936-34.8,21.03,21.03,0,0,1,8.16-1.579A21.019,21.019,0,0,1,199.2,174.345a20.771,20.771,0,0,1,1.489,8.057Zm-.939,0a20.451,20.451,0,0,0-1.634-7.631,19.9,19.9,0,0,0-18.425-12.089,20.193,20.193,0,0,0-7.529,1.543,19.718,19.718,0,0,0-6.366,32.072,20.015,20.015,0,0,0,6.363,4.291,19.728,19.728,0,0,0,15.1.1,19.92,19.92,0,0,0,12.43-18.283Z" transform="translate(-87.659 -89.193)" fill="#3b3b56"/>
    <path id="Path_13498" data-name="Path 13498" d="M332.5,245.412a10.366,10.366,0,0,1,1.451.085c.479.064.956.144,1.42.252.933.2,1.824.465,2.7.716l-1.082,1.16c-.386-1.02-.765-2.032-1.182-3.026s-.86-1.973-1.323-2.975v0a.447.447,0,0,1,.723-.5,12.942,12.942,0,0,1,2.044,2.774,20.9,20.9,0,0,1,1.407,3.118l0,.01a.886.886,0,0,1-1.086,1.15c-.908-.268-1.789-.577-2.647-.889l-1.284-.452-1.293-.433h0a.505.505,0,0,1,.15-.984" transform="translate(-183.787 -133.402)" fill="#3b3b56"/>
    <path id="Path_13499" data-name="Path 13499" d="M366.105,241.655c-.791.946-1.589,1.924-2.335,2.9-.365.494-.739.978-1.05,1.483a6.6,6.6,0,0,0-.759,1.456l-1.162-1.1a21.414,21.414,0,0,1,3.688-.98,20.1,20.1,0,0,1,3.77-.3.445.445,0,0,1,.109.875c-1.194.328-2.374.617-3.532.95s-2.3.7-3.413,1.127l-.008,0a.882.882,0,0,1-1.154-1.1,7.677,7.677,0,0,1,1-1.909,15.54,15.54,0,0,1,1.257-1.548c.441-.486.908-.942,1.39-1.379a14.775,14.775,0,0,1,1.542-1.221.5.5,0,0,1,.664.74Z" transform="translate(-199.403 -133.311)" fill="#3b3b56"/>
    <path id="Path_13500" data-name="Path 13500" d="M167.818,354.974a16.565,16.565,0,0,0,21.971,8.017,16.468,16.468,0,0,0,5.156-3.776,16.673,16.673,0,0,0,3.327-5.437,16.367,16.367,0,0,0-15.854-22.049,16.847,16.847,0,0,0-6.226,1.419,16.641,16.641,0,0,0-9.805,15.492A17.09,17.09,0,0,0,167.765,355Zm-.854.389a17.646,17.646,0,0,1-.67-13.544,17.849,17.849,0,0,1,23-10.63,17.947,17.947,0,0,1,10.566,23.184,17.778,17.778,0,0,1-3.725,5.954,17.919,17.919,0,0,1-12.529,5.6,17.757,17.757,0,0,1-16.7-10.542Z" transform="translate(-91.48 -182.717)" fill="#3b3b56"/>
    <path id="Path_13501" data-name="Path 13501" d="M210.21,352.618a2.084,2.084,0,0,1-.505-.608,2.848,2.848,0,0,1-.272-.675,2.912,2.912,0,0,1-.1-.725,2.207,2.207,0,0,1,.133-.792.552.552,0,0,1,.712-.317.572.572,0,0,1,.136.075,2.2,2.2,0,0,1,.532.6,2.94,2.94,0,0,1,.3.667,2.892,2.892,0,0,1,.126.717,2.094,2.094,0,0,1-.107.783.612.612,0,0,1-.782.372.632.632,0,0,1-.176-.1" transform="translate(-115.881 -193.452)" fill="#3b3b56"/>
    <path id="Path_13502" data-name="Path 13502" d="M210.915,343.624a3.028,3.028,0,0,1-.278.463l-.366.531c-.254.357-.52.71-.8,1.054s-.571.682-.872,1.007a12.006,12.006,0,0,1-.891.881l-.166.136a.423.423,0,0,1-.69-.346,3.835,3.835,0,0,1,.443-1.552,7.4,7.4,0,0,1,.777-1.235,7.2,7.2,0,0,1,1.008-1.061,5.471,5.471,0,0,1,.62-.451,4.057,4.057,0,0,1,.37-.2c.072-.03.129-.057.212-.086s.178-.05.263-.07a.418.418,0,0,1,.5.316.411.411,0,0,1-.007.211Z" transform="translate(-114.506 -189.703)" fill="#3b3b56"/>
    <path id="Path_13503" data-name="Path 13503" d="M190.339,359.518a2.362,2.362,0,0,1-.553-.641,3.353,3.353,0,0,1-.324-.719,3.419,3.419,0,0,1-.151-.777,2.475,2.475,0,0,1,.077-.854.536.536,0,0,1,.664-.367.544.544,0,0,1,.171.084,2.476,2.476,0,0,1,.579.632,3.407,3.407,0,0,1,.351.709,3.353,3.353,0,0,1,.179.767,2.365,2.365,0,0,1-.05.845.6.6,0,0,1-.729.425.608.608,0,0,1-.215-.106" transform="translate(-104.793 -197.148)" fill="#3b3b56"/>
    <path id="Path_13504" data-name="Path 13504" d="M179.47,354.88a5.212,5.212,0,0,1,1.867-.536,8.409,8.409,0,0,1,3.746.435,4.336,4.336,0,0,1,1.7,1.043.45.45,0,0,1-.417.749l-.071-.015c-.515-.109-1.052-.185-1.6-.256s-1.1-.13-1.657-.177c-1.113-.114-2.217-.2-3.335-.276l-.032,0a.513.513,0,0,1-.475-.549.519.519,0,0,1,.271-.416" transform="translate(-99.198 -196.125)" fill="#3b3b56"/>
    <path id="Path_13505" data-name="Path 13505" d="M206.49,366.63a.289.289,0,0,0-.012.158.027.027,0,0,0,0,.02l-.035-.055c-.036-.054-.086-.115-.137-.177-.111-.126-.232-.253-.364-.376a9.9,9.9,0,0,0-.838-.705,12.578,12.578,0,0,0-1.867-1.174,6.731,6.731,0,0,0-4-.872,6.106,6.106,0,0,0-3.336,2.185,13.223,13.223,0,0,0-2.167,3.714,10.366,10.366,0,0,0-.344,1.008,4.971,4.971,0,0,0-.183.944,1.1,1.1,0,0,0,0,.144c0,.028,0,.011,0,0a.61.61,0,0,0-.078-.139l-.02-.022a.494.494,0,0,0-.04-.048.53.53,0,0,0-.21-.139.463.463,0,0,0-.076-.033.469.469,0,0,0-.082-.017l-.041,0c-.007,0,0,0-.008,0a.056.056,0,0,0-.021,0,.838.838,0,0,0,.123-.025,8.3,8.3,0,0,0,.964-.341c1.375-.564,2.756-1.264,4.151-1.916.7-.329,1.393-.668,2.126-.98.186-.078.368-.155.574-.23a2.933,2.933,0,0,1,.7-.174l1.156-.142c.763-.086,1.524-.177,2.274-.291.374-.058.748-.12,1.107-.2.181-.036.357-.077.519-.124a1.886,1.886,0,0,0,.215-.073l.063-.026a.044.044,0,0,0-.013.019.238.238,0,0,0-.049.111Zm.907.243a.72.72,0,0,1-.122.234,1.132,1.132,0,0,1-.118.118,1.43,1.43,0,0,1-.184.125,2.647,2.647,0,0,1-.316.154c-.2.084-.394.152-.587.213-.386.121-.768.216-1.15.31-.763.184-1.526.341-2.287.493l-1.13.214a1.422,1.422,0,0,0-.409.129c-.154.067-.322.15-.487.232-.667.337-1.35.7-2.029,1.059-1.363.728-2.726,1.447-4.186,2.1a8.286,8.286,0,0,1-1.21.445,2.34,2.34,0,0,1-.446.078l-.165,0h-.044l-.076-.01a1.515,1.515,0,0,1-.152-.033,1.109,1.109,0,0,1-.577-.4,1.289,1.289,0,0,1-.194-.4,1.433,1.433,0,0,1-.057-.287,2.74,2.74,0,0,1-.014-.434,6.529,6.529,0,0,1,.231-1.328,12.031,12.031,0,0,1,.388-1.186,13.894,13.894,0,0,1,2.547-4.2,7.46,7.46,0,0,1,4.394-2.564,6.318,6.318,0,0,1,2.589.247,9.955,9.955,0,0,1,2.256,1.01,13.746,13.746,0,0,1,1.964,1.413,10.918,10.918,0,0,1,.881.842c.141.15.277.311.41.483a3.334,3.334,0,0,1,.2.294,1.841,1.841,0,0,1,.1.2,1.628,1.628,0,0,1,.047.158.788.788,0,0,1-.006.3Z" transform="translate(-105.982 -200.334)" fill="#3b3b56"/>
    <path id="Path_13506" data-name="Path 13506" d="M160.341,56.868a17.839,17.839,0,0,0,17.705-6.387,19.194,19.194,0,0,0,1.388-2.029l.568-1.09a8.439,8.439,0,0,0,.5-1.12l.229-.57a3.845,3.845,0,0,0,.2-.579l.343-1.178c.113-.393.159-.8.243-1.2l.113-.6c.031-.2.037-.407.058-.61l.1-1.223-.021-1.227c-.008-.2,0-.409-.019-.613l-.073-.609c-.056-.4-.079-.815-.159-1.216a17.6,17.6,0,0,0-4.28-8.678c-.264-.313-.578-.578-.864-.871l-.438-.429-.477-.386c-.323-.251-.629-.526-.964-.759l-1.026-.675a17.542,17.542,0,0,0-9.358-2.572,17.3,17.3,0,0,0-9.354,2.786,18.027,18.027,0,0,0-6.529,7.4.441.441,0,0,1-.805-.359,18.75,18.75,0,0,1,26.927-8.7l1.132.732c.371.254.71.55,1.067.823l.526.421.487.466c.318.317.663.609.958.949a20.344,20.344,0,0,1,3.067,4.425,20.435,20.435,0,0,1,1.66,5.125c.085.442.112.892.169,1.338l.074.671c.023.223.012.449.018.674l.014,1.349-.117,1.344c-.024.223-.034.449-.069.671l-.127.663c-.094.44-.151.888-.277,1.32l-.385,1.293a4.5,4.5,0,0,1-.227.634l-.254.624a9.684,9.684,0,0,1-.558,1.226c-.212.4-.413.8-.635,1.188a18.449,18.449,0,0,1-5.494,5.821l-.554.379-.277.188-.293.163-1.175.646c-.4.2-.817.361-1.224.542l-.616.263-.638.2a19.488,19.488,0,0,1-5.237.928,18.162,18.162,0,0,1-5.259-.6h0a.5.5,0,0,1,.236-.967" transform="translate(-81.591 -11.441)" fill="#3b3b56"/>
    <path id="Path_13507" data-name="Path 13507" d="M204.635,39.923a11.319,11.319,0,0,1-1.794,2.365,12.48,12.48,0,0,1-2.334,1.884.885.885,0,0,1-1.317-1l.006-.021c.164-.567.32-1.135.456-1.708s.262-1.149.355-1.733c.216-1.165.343-2.35.489-3.565v0a.447.447,0,0,1,.88-.041,13.967,13.967,0,0,1,.243,3.8,15.785,15.785,0,0,1-.254,1.906,15.5,15.5,0,0,1-.476,1.863l-1.31-1.017a21.274,21.274,0,0,0,2.2-1.542c.711-.562,1.388-1.172,2.068-1.8l0,0a.5.5,0,0,1,.783.613" transform="translate(-110.247 -19.791)" fill="#3b3b56"/>
    <path id="Path_13508" data-name="Path 13508" d="M170.295,43.953a5.788,5.788,0,0,1,2.153.8,13.495,13.495,0,0,1,3.353,2.776c.122.138.239.287.354.439a5.619,5.619,0,0,1,.335.472,4.464,4.464,0,0,1,.564,1.146.873.873,0,0,1-1.008,1.129l-.008,0c-.6-.128-1.194-.245-1.782-.383L172.5,49.95c-1.169-.246-2.33-.458-3.511-.593h0a.445.445,0,0,1-.025-.881,11.667,11.667,0,0,1,1.892-.147c.63,0,1.258.031,1.877.1s1.235.143,1.843.238,1.209.209,1.806.314L175.358,50.1a5.6,5.6,0,0,0-.912-1.441,16.528,16.528,0,0,0-1.317-1.432c-.471-.457-.962-.9-1.471-1.3a7.3,7.3,0,0,0-1.546-1l-.074-.032a.5.5,0,0,1,.256-.947" transform="translate(-93.325 -24.329)" fill="#3b3b56"/>
    <path id="Path_13509" data-name="Path 13509" d="M193.549,64.873a.2.2,0,0,0-.021.117l0,0-.022-.058c-.027-.059-.059-.125-.1-.2a5,5,0,0,0-.272-.425,9.96,9.96,0,0,0-.659-.827,12.051,12.051,0,0,0-1.542-1.464,5.442,5.442,0,0,0-3.56-1.421,3.91,3.91,0,0,0-1.7.675,7.687,7.687,0,0,0-1.491,1.339,14.955,14.955,0,0,0-2.24,3.543,11.543,11.543,0,0,0-.721,1.933,3.654,3.654,0,0,0-.086.439,1.263,1.263,0,0,0-.013.158c0,.02,0,0,0,.009s0-.017-.013-.047a.253.253,0,0,0-.037-.075.572.572,0,0,0-.148-.19.945.945,0,0,0-.192-.12.48.48,0,0,0-.1-.03.2.2,0,0,1-.034-.008.133.133,0,0,0-.046,0s.04,0,.1-.016a4.434,4.434,0,0,0,.441-.113c1.317-.421,2.693-1.063,4.059-1.633.687-.292,1.37-.593,2.081-.872l.547-.2a4.716,4.716,0,0,1,.654-.192,2.647,2.647,0,0,1,.356-.034l.287-.013.56-.018c.743-.018,1.481-.041,2.211-.09.364-.025.726-.058,1.075-.105.175-.021.346-.049.5-.084a1.493,1.493,0,0,0,.2-.057.457.457,0,0,1,.05-.017.033.033,0,0,0-.016.021.192.192,0,0,0-.044.091Zm.891.3a.8.8,0,0,1-.117.21,1.319,1.319,0,0,1-.118.116,1.349,1.349,0,0,1-.191.123,2.216,2.216,0,0,1-.323.14,5.907,5.907,0,0,1-.588.174c-.384.09-.761.155-1.138.216-.753.118-1.5.207-2.247.291l-.556.057-.271.029a1.33,1.33,0,0,0-.2.031c-.072.022-.255.09-.407.158l-.488.22-2,.96c-.671.327-1.346.654-2.035.963s-1.378.618-2.146.883a5.234,5.234,0,0,1-.638.179,2.354,2.354,0,0,1-.451.05c-.062,0-.124-.007-.185-.014a.747.747,0,0,1-.1-.017,1.362,1.362,0,0,1-.168-.054,1.084,1.084,0,0,1-.546-.487,1.937,1.937,0,0,1-.083-.207.955.955,0,0,1-.046-.182,2.309,2.309,0,0,1-.027-.269,2.815,2.815,0,0,1,.02-.4,5.274,5.274,0,0,1,.118-.659,13.219,13.219,0,0,1,.808-2.265,15.273,15.273,0,0,1,2.594-3.947,8.575,8.575,0,0,1,1.89-1.57,5.447,5.447,0,0,1,2.467-.817,5.161,5.161,0,0,1,2.517.584,9.006,9.006,0,0,1,1.977,1.378,13.209,13.209,0,0,1,1.593,1.72,11.073,11.073,0,0,1,.674.968,6.075,6.075,0,0,1,.3.538,3.275,3.275,0,0,1,.132.314,1.807,1.807,0,0,1,.057.21c.008.046.014.093.018.14a.925.925,0,0,1-.033.255Z" transform="translate(-99.291 -32.702)" fill="#3b3b56"/>
    <path id="Path_13510" data-name="Path 13510" d="M194.6,189.783c-2.805-.329-5.637-.63-8.429-.739-.7-.023-1.391-.026-2.059.012a6.388,6.388,0,0,0-.941.109,1.372,1.372,0,0,0-.192.048.584.584,0,0,0-.136.05c-.01.006-.041.015-.036.016a.024.024,0,0,0,.022-.015c0-.012.015,0,.017-.013s0,0-.011.024a3.933,3.933,0,0,0-.232.8c-.066.318-.114.653-.16.99-.091.675-.148,1.368-.19,2.061-.083,1.388-.091,2.789-.049,4.176.024.694.066,1.385.138,2.063a10.8,10.8,0,0,0,.349,1.924,2.845,2.845,0,0,0,.14.363.69.69,0,0,0,.13.2,1.87,1.87,0,0,0,.6.351,7.072,7.072,0,0,0,1.843.374,23.062,23.062,0,0,0,4.077-.064h.016a.853.853,0,0,1,.93.768.908.908,0,0,1,0,.167,15.183,15.183,0,0,0,.106,4.21,4.168,4.168,0,0,0,.684,1.733,1.469,1.469,0,0,0,.573.461,1.375,1.375,0,0,0,.352.1l.1.009.049.005.025,0,.012,0-.031,0a.469.469,0,0,0-.206.067.434.434,0,0,0-.064.057,1.014,1.014,0,0,0,.117-.262c.048-.145.091-.308.13-.478.078-.341.143-.7.206-1.066.129-.729.254-1.477.408-2.225a14.5,14.5,0,0,1,.626-2.251,5.163,5.163,0,0,1,.562-1.1,2.692,2.692,0,0,1,.991-.911.441.441,0,0,1,.43.768l-.018.011a2.878,2.878,0,0,0-.976,1.583,13.483,13.483,0,0,0-.447,2.1c-.1.726-.181,1.463-.27,2.214-.047.375-.1.755-.17,1.148-.037.2-.079.4-.139.612a2.2,2.2,0,0,1-.352.75,1,1,0,0,1-.267.246.96.96,0,0,1-.465.161l-.065.006h-.023l-.046,0-.091,0-.182-.01a2.822,2.822,0,0,1-.734-.167,2.906,2.906,0,0,1-1.2-.871,5.622,5.622,0,0,1-1.064-2.358,12.682,12.682,0,0,1-.3-2.371,18.7,18.7,0,0,1,.056-2.361l.946.933a22.2,22.2,0,0,1-4.438.132,8.717,8.717,0,0,1-2.325-.467,3.562,3.562,0,0,1-1.216-.733,2.723,2.723,0,0,1-.272-.319,2.477,2.477,0,0,1-.209-.351,4.224,4.224,0,0,1-.247-.629,12.419,12.419,0,0,1-.411-2.267c-.075-.736-.117-1.465-.139-2.192a41.2,41.2,0,0,1,.105-4.349c.056-.725.127-1.45.238-2.182.057-.367.122-.734.21-1.11a5.025,5.025,0,0,1,.426-1.225,1.6,1.6,0,0,1,.32-.414,2.73,2.73,0,0,1,.236-.174,1.778,1.778,0,0,1,.2-.1,2.073,2.073,0,0,1,.365-.127,2.674,2.674,0,0,1,.326-.072,7.805,7.805,0,0,1,1.178-.108c.754-.02,1.481.019,2.2.071,1.445.1,2.867.29,4.283.5s2.822.446,4.229.731a.5.5,0,0,1-.155.984Z" transform="translate(-99.876 -103.789)" fill="#3b3b56"/>
    <path id="Path_13511" data-name="Path 13511" d="M213.246,189.007c1.933.1,3.991.2,6.042.4a.652.652,0,0,1,.59.661v.038c-.049,2.207-.125,4.413-.186,6.619s-.161,4.411-.269,6.614v0a.888.888,0,0,1-.93.843h0l-2.945-.151-2.944-.164h-.021a.839.839,0,0,1-.791-.884c0-.005,0-.015,0-.021.1-1.186.184-2.375.3-3.558s.222-2.364.354-3.529.256-2.324.4-3.46l.4-3.371Zm.558.756-.038,3.409c-.008,1.136-.024,2.252-.046,3.356s-.055,2.2-.088,3.288-.09,2.172-.142,3.259l-.81-.905,2.946.11,2.946.123-.932.845q.176-3.305.408-6.608c.164-2.2.313-4.4.491-6.6l.589.7c-1.725-.259-3.441-.613-5.287-.967Z" transform="translate(-117.239 -104.628)" fill="#3b3b56"/>
    <path id="Path_13512" data-name="Path 13512" d="M330.315,309.584a15.552,15.552,0,0,1-9.459,14.473,15.744,15.744,0,1,1,5.043-25.512,15.427,15.427,0,0,1,4.359,11.038Zm-.939,0a14.885,14.885,0,0,0-1.212-5.51,14.353,14.353,0,0,0-13.3-8.667,14.627,14.627,0,0,0-5.408,1.121,14.188,14.188,0,0,0-4.567,23.031,14.465,14.465,0,0,0,4.564,3.089,14.244,14.244,0,0,0,15.532-2.942,14.423,14.423,0,0,0,4.337-10.121Z" transform="translate(-165.524 -162.664)" fill="#3b3b56"/>
    <path id="Path_13513" data-name="Path 13513" d="M325.052,315.3c-1.985-.267-4-.523-5.959-.605a10.389,10.389,0,0,0-1.407.029,1.7,1.7,0,0,0-.47.1s-.016,0,0,0a.115.115,0,0,0,.047-.034c.011-.017.029-.021.038-.037a.091.091,0,0,0,.013-.021l0,.013a.122.122,0,0,1-.011.023l-.018.053a1.012,1.012,0,0,0-.039.125,8.8,8.8,0,0,0-.22,1.35c-.053.479-.087.97-.109,1.46-.046.983-.038,1.973,0,2.95.021.488.055.974.113,1.445a6.342,6.342,0,0,0,.261,1.283.653.653,0,0,0,.043.106.208.208,0,0,0,.031.06c0,.02.054.035.063.069.043.03.107.064.159.1l.239.1a5.516,5.516,0,0,0,1.273.235,16.973,16.973,0,0,0,2.855-.043l.028,0a.852.852,0,0,1,.923.772.914.914,0,0,1,0,.167,10.984,10.984,0,0,0,.06,3,2.881,2.881,0,0,0,.446,1.179.872.872,0,0,0,.332.279.771.771,0,0,0,.2.063l.059.007.03,0,.015,0h-.029a.54.54,0,0,0-.242.079.443.443,0,0,0-.092.083.659.659,0,0,0,.054-.124c.033-.1.065-.21.094-.33.058-.241.107-.5.155-.766.1-.529.2-1.076.317-1.625a10.8,10.8,0,0,1,.482-1.662,3.821,3.821,0,0,1,.434-.824,2.1,2.1,0,0,1,.779-.7.44.44,0,0,1,.434.765l-.021.014a2.052,2.052,0,0,0-.633,1.1,9.824,9.824,0,0,0-.3,1.515c-.07.526-.117,1.063-.178,1.614-.033.275-.067.554-.118.849-.026.147-.058.3-.1.464a1.745,1.745,0,0,1-.289.615.913.913,0,0,1-.241.221.9.9,0,0,1-.432.149l-.061,0H324l-.072,0-.145-.007a2.27,2.27,0,0,1-.588-.132,2.338,2.338,0,0,1-.962-.692,4.321,4.321,0,0,1-.829-1.806,9.261,9.261,0,0,1-.228-1.769,13.875,13.875,0,0,1,.036-1.755l.949.937a16.173,16.173,0,0,1-3.207.108,7.175,7.175,0,0,1-1.707-.308c-.154-.059-.309-.124-.463-.19a4.4,4.4,0,0,1-.479-.305,2.337,2.337,0,0,1-.446-.49,1.766,1.766,0,0,1-.148-.274,2.107,2.107,0,0,1-.1-.245,7.86,7.86,0,0,1-.349-1.686c-.062-.534-.1-1.059-.115-1.582a29.793,29.793,0,0,1,.058-3.12c.036-.52.083-1.039.153-1.564a10.116,10.116,0,0,1,.341-1.63,2.314,2.314,0,0,1,.085-.233l.052-.124.076-.145.041-.071.069-.1a1.1,1.1,0,0,1,.162-.179,2.06,2.06,0,0,1,.2-.147,1.432,1.432,0,0,1,.169-.085,3.035,3.035,0,0,1,1.009-.209,11.211,11.211,0,0,1,1.627.05c1.044.093,2.056.263,3.063.452s2,.4,3,.651a.5.5,0,0,1-.19.978Z" transform="translate(-174.445 -173.353)" fill="#3b3b56"/>
    <path id="Path_13514" data-name="Path 13514" d="M339.242,314.434c1.42.041,2.966.081,4.5.216a.646.646,0,0,1,.589.648v.051c-.018,1.611-.064,3.221-.094,4.831s-.1,3.219-.178,4.827v0a.886.886,0,0,1-.928.842h0l-2.148-.114c-.716-.038-1.432-.076-2.147-.126l-.038,0a.834.834,0,0,1-.773-.89v-.013c.075-.879.145-1.761.239-2.636s.183-1.75.294-2.607.217-1.71.336-2.538l.343-2.449Zm.558.756.02,2.488c.012.829.017,1.638.014,2.435s-.015,1.582-.028,2.366-.051,1.558-.083,2.337l-.81-.905c.717.017,1.434.045,2.15.074l2.15.086-.932.845q.131-2.411.317-4.82c.134-1.605.253-3.211.4-4.816l.589.7c-1.212-.2-2.417-.49-3.75-.781Z" transform="translate(-187.118 -174.061)" fill="#3b3b56"/>
    <path id="Path_13515" data-name="Path 13515" d="M273.527,206.342a7.36,7.36,0,0,1-7.257,7.522,7.52,7.52,0,0,1-7.652-7.522,7.633,7.633,0,0,1,2.262-5.389,7.533,7.533,0,0,1,5.389-2.154,7.4,7.4,0,0,1,5.242,2.3,7.208,7.208,0,0,1,1.958,5.242Zm-.939,0a6.338,6.338,0,0,0-2-4.317,6.149,6.149,0,0,0-4.317-1.658,6.022,6.022,0,0,0-4.17,1.8,5.92,5.92,0,0,0-1.7,4.17,6,6,0,0,0,5.867,6,6.156,6.156,0,0,0,6.261-6Z" transform="translate(-143.163 -110.047)" fill="#3b3b56"/>
    <path id="Path_13516" data-name="Path 13516" d="M129.775,6.842a6.654,6.654,0,0,1-6.552,6.817,6.815,6.815,0,0,1-6.946-6.817,6.925,6.925,0,0,1,2.056-4.891A6.825,6.825,0,0,1,123.222,0,6.7,6.7,0,0,1,127.966,2.1a6.5,6.5,0,0,1,1.751,4.744Zm-.939,0a5.631,5.631,0,0,0-1.8-3.818,5.444,5.444,0,0,0-3.818-1.452,5.316,5.316,0,0,0-3.671,1.6,5.212,5.212,0,0,0-1.49,3.671,5.294,5.294,0,0,0,5.161,5.291,5.45,5.45,0,0,0,5.556-5.291Z" transform="translate(-64.367 0)" fill="#3b3b56"/>
    <path id="Path_13517" data-name="Path 13517" d="M256.672,391.425a6.1,6.1,0,0,1-6,6.267,6.265,6.265,0,0,1-6.4-6.267,6.374,6.374,0,0,1,1.9-4.5,6.272,6.272,0,0,1,4.5-1.787,6.142,6.142,0,0,1,4.354,1.934,5.946,5.946,0,0,1,1.59,4.354Zm-.939,0A5.081,5.081,0,0,0,254.1,388a4.893,4.893,0,0,0-3.429-1.29,4.765,4.765,0,0,0-3.282,1.437,4.664,4.664,0,0,0-1.329,3.282,4.737,4.737,0,0,0,1.325,3.287,4.786,4.786,0,0,0,3.287,1.454,4.9,4.9,0,0,0,5.006-4.741Z" transform="translate(-135.223 -213.199)" fill="#3b3b56"/>
    <path id="Path_13518" data-name="Path 13518" d="M208.059,367.683c.151-.563-4.535-4.924-8.25-3.986-4.664,1.178-7.089,8.733-6.215,9.117.767.338,7.549-3.537,8.64-3.794.533-.125,5.671-.762,5.825-1.338" transform="translate(-107.07 -201.259)" fill="#3b3b56"/>
    <path id="Path_13519" data-name="Path 13519" d="M207.678,367.428a.692.692,0,0,0-.08-.171,2.648,2.648,0,0,0-.16-.221c-.119-.143-.246-.283-.381-.416a10.3,10.3,0,0,0-.854-.757,13.06,13.06,0,0,0-1.9-1.263,7.191,7.191,0,0,0-4.317-1.021,6.571,6.571,0,0,0-3.738,2.326,13.319,13.319,0,0,0-2.3,3.9,7.875,7.875,0,0,0-.568,2.163.959.959,0,0,0,.049.426.8.8,0,0,0,.322-.04,8.159,8.159,0,0,0,1.059-.378c1.408-.6,2.783-1.3,4.165-1.987.692-.343,1.381-.689,2.087-1.013.178-.08.354-.16.54-.232a2.4,2.4,0,0,1,.592-.159l1.146-.173c.763-.11,1.524-.225,2.279-.365.377-.071.754-.146,1.124-.239.185-.046.368-.1.545-.159a1.977,1.977,0,0,0,.253-.1.418.418,0,0,0,.159-.115Zm.227.061a.5.5,0,0,1-.266.258,2.144,2.144,0,0,1-.279.123c-.186.07-.374.128-.562.179-.376.1-.755.188-1.134.268-.758.158-1.52.292-2.282.419l-1.141.184a3.791,3.791,0,0,0-1.042.374c-.693.325-1.379.677-2.067,1.025-1.377.7-2.745,1.411-4.172,2.033a8.416,8.416,0,0,1-1.116.408,1.726,1.726,0,0,1-.323.058.48.48,0,0,1-.441-.173,1.187,1.187,0,0,1-.135-.7,8.248,8.248,0,0,1,.579-2.3,13.719,13.719,0,0,1,2.411-4.011,6.946,6.946,0,0,1,3.991-2.423,5.768,5.768,0,0,1,2.364.192,9.656,9.656,0,0,1,2.163.916,13.313,13.313,0,0,1,1.928,1.323,10.639,10.639,0,0,1,.865.791c.138.14.268.288.393.443a3.032,3.032,0,0,1,.175.25.543.543,0,0,1,.1.367Z" transform="translate(-106.81 -201.035)" fill="#3b3b56"/>
    <path id="Path_13520" data-name="Path 13520" d="M137.729,162.434l-1-2.772a.193.193,0,0,0-.365.007l-.889,2.812a3.026,3.026,0,0,1-1.855,1.934l-2.772,1a.193.193,0,0,0,.007.365l2.812.889a3.028,3.028,0,0,1,1.934,1.855l1,2.772a.193.193,0,0,0,.365-.008l.889-2.811a3.029,3.029,0,0,1,1.855-1.934l2.772-1a.192.192,0,0,0-.007-.365l-2.811-.889a3.028,3.028,0,0,1-1.934-1.855" transform="translate(-72.36 -88.313)" fill="#fff"/>
    <path id="Path_13521" data-name="Path 13521" d="M119.43,184.263l-.539-1.488a.1.1,0,0,0-.2,0l-.478,1.509a1.627,1.627,0,0,1-1,1.038l-1.488.539a.1.1,0,0,0,0,.2l1.509.477a1.626,1.626,0,0,1,1.038,1l.539,1.488a.1.1,0,0,0,.2,0l.478-1.509a1.624,1.624,0,0,1,1-1.038l1.488-.54a.1.1,0,0,0,0-.2l-1.509-.477a1.625,1.625,0,0,1-1.038-1" transform="translate(-64.029 -101.141)" fill="#fff"/>
    <path id="Path_13522" data-name="Path 13522" d="M314.922,190.6a1.357,1.357,0,1,1-1.357-1.357,1.357,1.357,0,0,1,1.357,1.357" transform="translate(-172.828 -104.759)" fill="#fff"/>
    <path id="Path_13523" data-name="Path 13523" d="M267.564,114.995a1.358,1.358,0,1,1-1.357-1.357,1.357,1.357,0,0,1,1.357,1.357" transform="translate(-146.612 -62.906)" fill="#fff"/>
    <path id="Path_13524" data-name="Path 13524" d="M94.527,173.92a1.065,1.065,0,1,1-1.065-1.065,1.065,1.065,0,0,1,1.065,1.065" transform="translate(-51.148 -95.687)" fill="#fff"/>
    <path id="Path_13525" data-name="Path 13525" d="M279.681,125.864l-.936-2.583a.179.179,0,0,0-.34.007l-.829,2.62a2.817,2.817,0,0,1-1.729,1.8l-2.583.937a.179.179,0,0,0,.007.34l2.619.828a2.823,2.823,0,0,1,1.8,1.729l.936,2.583a.18.18,0,0,0,.341-.007l.829-2.62a2.819,2.819,0,0,1,1.728-1.8l2.583-.936a.18.18,0,0,0-.007-.34l-2.62-.828a2.822,2.822,0,0,1-1.8-1.729" transform="translate(-151.205 -68.179)" fill="#fff"/>
    <path id="Path_13526" data-name="Path 13526" d="M297.581,282.4l-.562-1.55a.107.107,0,0,0-.2,0l-.5,1.573a1.694,1.694,0,0,1-1.038,1.082l-1.55.562a.108.108,0,0,0,0,.2l1.572.5a1.692,1.692,0,0,1,1.081,1.038l.562,1.55a.108.108,0,0,0,.2,0l.5-1.572a1.692,1.692,0,0,1,1.038-1.082l1.55-.562a.108.108,0,0,0,0-.2l-1.572-.5a1.694,1.694,0,0,1-1.082-1.038" transform="translate(-162.56 -155.43)" fill="#fff"/>
  </g>
</svg>
