<svg xmlns="http://www.w3.org/2000/svg" width="153" height="30" viewBox="0 0 153 30">
  <g id="logo" transform="translate(0.036 0.021)">
    <g id="Layer_1" data-name="Layer 1" transform="translate(-0.036 -0.021)">
      <path id="Path_13158" data-name="Path 13158" d="M52.7,27.307h.9v-.484c0-2.769-1.8-3.72-3.91-3.72a10.018,10.018,0,0,0-4.4,1.207,1.572,1.572,0,0,1-2.348-.723l-.413-.785a1.542,1.542,0,0,1,.364-2.166c.12-.062.178-.12.3-.182a14.792,14.792,0,0,1,6.923-1.744c5.476,0,8.787,3.071,8.787,8.427V39.123a1.55,1.55,0,0,1-1.323,1.744H55.774c-1.145,0-1.686-.6-1.686-1.744V37.842a4.447,4.447,0,0,1,.062-.905h-.062a7.6,7.6,0,0,1-6.613,3.976c-3.852,0-7.026-2.48-7.026-6.381C40.362,28.389,48.008,27.307,52.7,27.307Zm-3.914,9.572c2.951,0,4.877-3.009,4.877-5.538v-.785h-.9c-2.649,0-7.167.413-7.167,3.554C45.6,35.552,46.682,36.879,48.789,36.879Z" transform="translate(-23.716 -10.955)" fill="#fff"/>
      <path id="Path_13159" data-name="Path 13159" d="M250.374,27.307h.827v-.484c0-2.769-1.806-3.72-3.972-3.72a10.018,10.018,0,0,0-4.4,1.207,1.572,1.572,0,0,1-2.348-.723l-.413-.785a1.542,1.542,0,0,1,.364-2.166c.12-.062.178-.12.3-.182a14.792,14.792,0,0,1,6.923-1.744c5.476,0,8.787,3.071,8.787,8.427V39.123a1.55,1.55,0,0,1-1.323,1.744h-1.806c-1.145,0-1.686-.6-1.686-1.744V37.842a4.45,4.45,0,0,1,.062-.905h-.054a7.6,7.6,0,0,1-6.613,3.976c-3.856,0-7.026-2.48-7.026-6.381C237.971,28.389,245.617,27.307,250.374,27.307ZM246.4,36.879c2.947,0,4.877-3.009,4.877-5.538v-.785h-.827c-2.649,0-7.167.413-7.167,3.554-.074,1.442,1.008,2.769,3.116,2.769Z" transform="translate(-139.736 -10.955)" fill="#fff"/>
      <path id="Path_13160" data-name="Path 13160" d="M94.41,21.158a1.55,1.55,0,0,1,1.323-1.744H97.72A1.513,1.513,0,0,1,99.406,20.8v1.624c0,.3-.062.661-.062.963h.062a8.335,8.335,0,0,1,6.981-4.455c3.191,0,5.3,1.5,6.2,4.336h.058a8.266,8.266,0,0,1,7.212-4.336c4.4,0,6.923,2.48,6.923,8.068V39.281a1.55,1.55,0,0,1-1.323,1.744h-2.211A1.55,1.55,0,0,1,121.5,39.7V27.961c0-2.405-.484-4.212-2.893-4.212-3.55,0-5.418,3.67-5.418,7.344v8.187a1.54,1.54,0,0,1-1.682,1.744H109.7a1.554,1.554,0,0,1-1.748-1.323V27.961c0-2.286-.36-4.212-2.827-4.212-3.72,0-5.48,3.79-5.48,7.344v8.187a1.543,1.543,0,0,1-1.686,1.744H96.154a1.517,1.517,0,0,1-1.686-1.744Z" transform="translate(-55.418 -11.084)" fill="#fff"/>
      <path id="Path_13161" data-name="Path 13161" d="M324.22,25.065a1.852,1.852,0,0,1-1.806,1.806h-9.452a1.079,1.079,0,0,1-1.083-1.083V24.7a1.079,1.079,0,0,1,1.083-1.062h6.022c0-4.757-4.7-6.563-8.489-6.563a18.057,18.057,0,0,0-2.529.24c-6.741,1.265-11.2,7.286-11.2,10.775v7.2a1.544,1.544,0,0,1-1.686,1.748h-1.806A1.52,1.52,0,0,1,291.59,35.3V15.732h1.628a3.459,3.459,0,0,1,3.368,3.435,11.334,11.334,0,0,1-.12,1.442h.062c.661-1.926,7.216-8.489,15.11-8.489C317.3,12.244,324.22,15.732,324.22,25.065Z" transform="translate(-171.22 -7.088)" fill="#fff"/>
      <path id="Path_13162" data-name="Path 13162" d="M341.614,44.216l-.479-.781c-.541-.967-1.265-1.087-2.348-.6a9.473,9.473,0,0,1-4.575,1.385,6.414,6.414,0,0,1-6.381-5.84,12.19,12.19,0,0,1,.12-3.306A2.571,2.571,0,0,0,326.082,32a1.608,1.608,0,0,0-.541-.062h0a2.534,2.534,0,0,0-2.405,1.678,12.814,12.814,0,0,0-.665,3.976c0,6.018,4.336,11.076,11.378,11.076a13.122,13.122,0,0,0,7.167-2.108A1.538,1.538,0,0,0,341.614,44.216Z" transform="translate(-189.337 -18.713)" fill="#fff"/>
      <path id="Path_13163" data-name="Path 13163" d="M-.021,1.749A1.559,1.559,0,0,1,1.318-.012H15.163a1.608,1.608,0,0,1,1.761,1.4v1.5a1.5,1.5,0,0,1-1.385,1.683H5.294V28.188a1.544,1.544,0,0,1-1.686,1.749H1.681a1.549,1.549,0,0,1-1.7-1.749Z" transform="translate(0.036 0.021)" fill="#fff"/>
      <path id="Path_13164" data-name="Path 13164" d="M23.841,31.6l-3.306.178a1.364,1.364,0,0,0-1.265,1.265v1.5a1.273,1.273,0,0,0,1.265,1.265L23.841,36c1.265.058,1.988-.541,1.988-1.624V33.227C25.771,32.083,25.106,31.541,23.841,31.6Z" transform="translate(-11.291 -18.523)" fill="#fff"/>
      <path id="Path_13165" data-name="Path 13165" d="M359.622.3h-.8a.132.132,0,0,1-.124-.12h0V.12a.132.132,0,0,1,.124-.12h1.864a.128.128,0,0,1,.12.12h0V.182a.128.128,0,0,1-.12.12h-.781V2.41a.132.132,0,0,1-.12.12h-.124a.132.132,0,0,1-.12-.12Z" transform="translate(-210.593 0.009)" fill="#fff"/>
      <path id="Path_13166" data-name="Path 13166" d="M364.584.12A.132.132,0,0,1,364.7,0h.182a.128.128,0,0,1,.12.12l.541,1.265a2.14,2.14,0,0,1,.12.36h0l.12-.36L366.333.12a.128.128,0,0,1,.12-.12h.178a.132.132,0,0,1,.124.12h0l.178,2.29c0,.058,0,.12-.058.12h-.12a.132.132,0,0,1-.124-.12L366.51.9V.541h0a2.134,2.134,0,0,1-.12.36l-.479,1.087a.132.132,0,0,1-.124.12h-.12a.132.132,0,0,1-.12-.12L365.055.9a2.14,2.14,0,0,1-.12-.36h0V.9l-.182,1.509a.132.132,0,0,1-.12.12h-.12a.132.132,0,0,1-.124-.12h0Z" transform="translate(-213.932 0.009)" fill="#fff"/>
      <path id="Path_13167" data-name="Path 13167" d="M182.468,31.221,182.41,29.6l.058-1.624c.182-5.9,4.034-9.452,10.056-9.452,4.336,0,7.344,1.744,8.849,3.972a6.831,6.831,0,0,1,1.145,3.191.951.951,0,0,1-.963.963H197.88c-.6,0-.781-.178-1.083-.827a4.047,4.047,0,0,0-4.216-2.947c-2.769,0-4.393,1.744-4.513,5.373l-.041,1.471.041,1.4c.182,3.554,1.686,5.373,4.513,5.373,2.17,0,3.373-.827,4.216-2.951a1,1,0,0,1,1.083-.827h3.674a.951.951,0,0,1,.963.963h0c-.12,1.926-1.5,4.336-4.455,5.96a11.783,11.783,0,0,1-5.538,1.2C186.444,40.673,182.654,37.123,182.468,31.221Z" transform="translate(-107.095 -10.843)" fill="#fff"/>
    </g>
  </g>
</svg>
