<svg xmlns="http://www.w3.org/2000/svg" width="40" height="40" viewBox="0 0 40 40">
  <g id="Group_8813" data-name="Group 8813" transform="translate(-1563.382 -458.283)">
    <path id="icons8-whatsapp" d="M23,3A19.967,19.967,0,0,0,5.852,33.251L3.179,43l9.958-2.614A20,20,0,1,0,23,3ZM16.154,13.671c.325,0,.659,0,.947.013.357.008.745.034,1.117.856.442.977,1.4,3.427,1.527,3.675a.894.894,0,0,1,.039.866,3.631,3.631,0,0,1-.488.83c-.248.287-.52.643-.745.859-.248.248-.5.521-.218,1.016a14.817,14.817,0,0,0,2.754,3.428,13.448,13.448,0,0,0,3.984,2.458c.5.248.784.21,1.071-.124s1.239-1.44,1.572-1.937.657-.411,1.107-.247,2.892,1.363,3.389,1.611.822.371.947.573a4.088,4.088,0,0,1-.283,2.357c-.412,1.155-2.433,2.272-3.34,2.35s-1.769.411-5.947-1.234c-5.04-1.985-8.218-7.147-8.467-7.48A9.6,9.6,0,0,1,13.1,18.423a5.578,5.578,0,0,1,1.729-4.134A1.821,1.821,0,0,1,16.154,13.671Z" transform="translate(1560.382 455.283)" fill="#bdccd4"/>
  </g>
</svg>
